<svg width="860" height="81" viewBox="0 0 860 81" fill="none" xmlns="http://www.w3.org/2000/svg">
<path d="M13.45 20.26H0.800001V11.68C4.24667 11.68 6.99667 11.3867 9.05 10.8C11.1767 10.2133 12.8633 9.26 14.11 7.94C15.3567 6.54666 16.4567 4.56666 17.41 1.99999H25.55V79H13.45V20.26ZM62.993 20.26H50.343V11.68C53.7896 11.68 56.5396 11.3867 58.593 10.8C60.7196 10.2133 62.4063 9.26 63.653 7.94C64.8996 6.54666 65.9996 4.56666 66.953 1.99999H75.093V79H62.993V20.26ZM105.056 13H92.4059V1.99999H129.806V13H117.156V79H105.056V13ZM141.164 1.99999H153.264V33.35H166.244V1.99999H178.344V79H166.244V44.35H153.264V79H141.164V1.99999ZM215.973 1.99999H228.073V68H247.983V79H215.973V1.99999ZM259.285 1.99999H271.385V79H259.285V1.99999ZM285.948 1.99999H298.048V34.45L313.448 1.99999H325.548L311.138 30.27L325.768 79H313.118L302.888 44.68L298.048 54.47V79H285.948V1.99999ZM336.994 1.99999H369.994V13H349.094V33.35H365.704V44.35H349.094V68H369.994V79H336.994V1.99999ZM382.455 1.99999H394.555V68H414.465V79H382.455V1.99999ZM425.768 1.99999H437.868V79H425.768V1.99999ZM469.92 80.1C463.98 80.1 459.433 78.4133 456.28 75.04C453.127 71.6667 451.55 66.9 451.55 60.74V20.26C451.55 14.1 453.127 9.33333 456.28 5.96C459.433 2.58666 463.98 0.899996 469.92 0.899996C475.86 0.899996 480.407 2.58666 483.56 5.96C486.713 9.33333 488.29 14.1 488.29 20.26V60.74C488.29 66.9 486.713 71.6667 483.56 75.04C480.407 78.4133 475.86 80.1 469.92 80.1ZM469.92 69.1C474.1 69.1 476.19 66.57 476.19 61.51V19.49C476.19 14.43 474.1 11.9 469.92 11.9C465.74 11.9 463.65 14.43 463.65 19.49V61.51C463.65 66.57 465.74 69.1 469.92 69.1ZM501.973 1.99999H517.153L528.923 48.09H529.143V1.99999H539.923V79H527.493L512.973 22.79H512.753V79H501.973V1.99999Z" fill="white"/>
<path d="M593.263 80.1C587.397 80.1 582.96 78.45 579.953 75.15C576.947 71.7767 575.443 66.9733 575.443 60.74V56.34H586.883V61.62C586.883 66.6067 588.973 69.1 593.153 69.1C595.207 69.1 596.747 68.5133 597.773 67.34C598.873 66.0933 599.423 64.1133 599.423 61.4C599.423 58.1733 598.69 55.35 597.223 52.93C595.757 50.4367 593.043 47.4667 589.083 44.02C584.097 39.62 580.613 35.66 578.633 32.14C576.653 28.5467 575.663 24.5133 575.663 20.04C575.663 13.9533 577.203 9.26 580.283 5.96C583.363 2.58666 587.837 0.899996 593.703 0.899996C599.497 0.899996 603.86 2.58666 606.793 5.96C609.8 9.26 611.303 14.0267 611.303 20.26V23.45H599.863V19.49C599.863 16.85 599.35 14.9433 598.323 13.77C597.297 12.5233 595.793 11.9 593.813 11.9C589.78 11.9 587.763 14.3567 587.763 19.27C587.763 22.0567 588.497 24.66 589.963 27.08C591.503 29.5 594.253 32.4333 598.213 35.88C603.273 40.28 606.757 44.2767 608.663 47.87C610.57 51.4633 611.523 55.68 611.523 60.52C611.523 66.8267 609.947 71.6667 606.793 75.04C603.713 78.4133 599.203 80.1 593.263 80.1ZM641.451 80.1C635.511 80.1 630.965 78.4133 627.811 75.04C624.658 71.6667 623.081 66.9 623.081 60.74V20.26C623.081 14.1 624.658 9.33333 627.811 5.96C630.965 2.58666 635.511 0.899996 641.451 0.899996C647.391 0.899996 651.938 2.58666 655.091 5.96C658.245 9.33333 659.821 14.1 659.821 20.26V60.74C659.821 66.9 658.245 71.6667 655.091 75.04C651.938 78.4133 647.391 80.1 641.451 80.1ZM641.451 69.1C645.631 69.1 647.721 66.57 647.721 61.51V19.49C647.721 14.43 645.631 11.9 641.451 11.9C637.271 11.9 635.181 14.43 635.181 19.49V61.51C635.181 66.57 637.271 69.1 641.451 69.1ZM690.664 80.1C684.797 80.1 680.324 78.45 677.244 75.15C674.164 71.7767 672.624 66.9733 672.624 60.74V20.26C672.624 14.0267 674.164 9.26 677.244 5.96C680.324 2.58666 684.797 0.899996 690.664 0.899996C696.531 0.899996 701.004 2.58666 704.084 5.96C707.164 9.26 708.704 14.0267 708.704 20.26V26.86H697.264V19.49C697.264 14.43 695.174 11.9 690.994 11.9C686.814 11.9 684.724 14.43 684.724 19.49V61.62C684.724 66.6067 686.814 69.1 690.994 69.1C695.174 69.1 697.264 66.6067 697.264 61.62V46.55H691.214V35.55H708.704V60.74C708.704 66.9733 707.164 71.7767 704.084 75.15C701.004 78.45 696.531 80.1 690.664 80.1ZM731.323 1.99999H747.713L760.253 79H748.153L745.953 63.71V63.93H732.203L730.003 79H718.783L731.323 1.99999ZM744.523 53.48L739.133 15.42H738.913L733.633 53.48H744.523ZM771.623 1.99999H786.803L798.573 48.09H798.793V1.99999H809.573V79H797.143L782.623 22.79H782.403V79H771.623V1.99999ZM841.227 80.1C835.36 80.1 830.887 78.45 827.807 75.15C824.727 71.7767 823.187 66.9733 823.187 60.74V20.26C823.187 14.0267 824.727 9.26 827.807 5.96C830.887 2.58666 835.36 0.899996 841.227 0.899996C847.093 0.899996 851.567 2.58666 854.647 5.96C857.727 9.26 859.267 14.0267 859.267 20.26V26.86H847.827V19.49C847.827 14.43 845.737 11.9 841.557 11.9C837.377 11.9 835.287 14.43 835.287 19.49V61.62C835.287 66.6067 837.377 69.1 841.557 69.1C845.737 69.1 847.827 66.6067 847.827 61.62V46.55H841.777V35.55H859.267V60.74C859.267 66.9733 857.727 71.7767 854.647 75.15C851.567 78.45 847.093 80.1 841.227 80.1Z" fill="#A62121"/>
</svg>
