<svg width="275" height="30" viewBox="0 0 275 30" fill="none" xmlns="http://www.w3.org/2000/svg">
<path d="M4.8 7.64H0.2V4.52C1.45333 4.52 2.45333 4.41333 3.2 4.2C3.97333 3.98667 4.58667 3.64 5.04 3.16C5.49333 2.65333 5.89333 1.93333 6.24 0.999998H9.2V29H4.8V7.64ZM20.8156 7.64H16.2156V4.52C17.469 4.52 18.469 4.41333 19.2156 4.2C19.989 3.98667 20.6023 3.64 21.0556 3.16C21.509 2.65333 21.909 1.93333 22.2556 0.999998H25.2156V29H20.8156V7.64ZM34.1113 5H29.5113V0.999998H43.1113V5H38.5113V29H34.1113V5ZM45.2416 0.999998H49.6416V12.4H54.3616V0.999998H58.7616V29H54.3616V16.4H49.6416V29H45.2416V0.999998ZM68.4447 0.999998H72.8447V25H80.0847V29H68.4447V0.999998ZM82.1947 0.999998H86.5947V29H82.1947V0.999998ZM89.89 0.999998H94.29V12.8L99.89 0.999998H104.29L99.05 11.28L104.37 29H99.77L96.05 16.52L94.29 20.08V29H89.89V0.999998ZM106.453 0.999998H118.453V5H110.853V12.4H116.893V16.4H110.853V25H118.453V29H106.453V0.999998ZM120.984 0.999998H125.384V25H132.624V29H120.984V0.999998ZM134.734 0.999998H139.134V29H134.734V0.999998ZM148.789 29.4C146.629 29.4 144.976 28.7867 143.829 27.56C142.682 26.3333 142.109 24.6 142.109 22.36V7.64C142.109 5.4 142.682 3.66667 143.829 2.44C144.976 1.21333 146.629 0.599998 148.789 0.599998C150.949 0.599998 152.602 1.21333 153.749 2.44C154.896 3.66667 155.469 5.4 155.469 7.64V22.36C155.469 24.6 154.896 26.3333 153.749 27.56C152.602 28.7867 150.949 29.4 148.789 29.4ZM148.789 25.4C150.309 25.4 151.069 24.48 151.069 22.64V7.36C151.069 5.52 150.309 4.6 148.789 4.6C147.269 4.6 146.509 5.52 146.509 7.36V22.64C146.509 24.48 147.269 25.4 148.789 25.4ZM158.445 0.999998H163.965L168.245 17.76H168.325V0.999998H172.245V29H167.725L162.445 8.56H162.365V29H158.445V0.999998Z" fill="white"/>
<path d="M187.641 29.4C185.508 29.4 183.895 28.8 182.801 27.6C181.708 26.3733 181.161 24.6267 181.161 22.36V20.76H185.321V22.68C185.321 24.4933 186.081 25.4 187.601 25.4C188.348 25.4 188.908 25.1867 189.281 24.76C189.681 24.3067 189.881 23.5867 189.881 22.6C189.881 21.4267 189.615 20.4 189.081 19.52C188.548 18.6133 187.561 17.5333 186.121 16.28C184.308 14.68 183.041 13.24 182.321 11.96C181.601 10.6533 181.241 9.18667 181.241 7.56C181.241 5.34667 181.801 3.64 182.921 2.44C184.041 1.21333 185.668 0.599998 187.801 0.599998C189.908 0.599998 191.495 1.21333 192.561 2.44C193.655 3.64 194.201 5.37333 194.201 7.64V8.8H190.041V7.36C190.041 6.4 189.855 5.70667 189.481 5.28C189.108 4.82667 188.561 4.6 187.841 4.6C186.375 4.6 185.641 5.49333 185.641 7.28C185.641 8.29333 185.908 9.24 186.441 10.12C187.001 11 188.001 12.0667 189.441 13.32C191.281 14.92 192.548 16.3733 193.241 17.68C193.935 18.9867 194.281 20.52 194.281 22.28C194.281 24.5733 193.708 26.3333 192.561 27.56C191.441 28.7867 189.801 29.4 187.641 29.4ZM203.164 29.4C201.004 29.4 199.351 28.7867 198.204 27.56C197.057 26.3333 196.484 24.6 196.484 22.36V7.64C196.484 5.4 197.057 3.66667 198.204 2.44C199.351 1.21333 201.004 0.599998 203.164 0.599998C205.324 0.599998 206.977 1.21333 208.124 2.44C209.271 3.66667 209.844 5.4 209.844 7.64V22.36C209.844 24.6 209.271 26.3333 208.124 27.56C206.977 28.7867 205.324 29.4 203.164 29.4ZM203.164 25.4C204.684 25.4 205.444 24.48 205.444 22.64V7.36C205.444 5.52 204.684 4.6 203.164 4.6C201.644 4.6 200.884 5.52 200.884 7.36V22.64C200.884 24.48 201.644 25.4 203.164 25.4ZM219.06 29.4C216.926 29.4 215.3 28.8 214.18 27.6C213.06 26.3733 212.5 24.6267 212.5 22.36V7.64C212.5 5.37333 213.06 3.64 214.18 2.44C215.3 1.21333 216.926 0.599998 219.06 0.599998C221.193 0.599998 222.82 1.21333 223.94 2.44C225.06 3.64 225.62 5.37333 225.62 7.64V10.04H221.46V7.36C221.46 5.52 220.7 4.6 219.18 4.6C217.66 4.6 216.9 5.52 216.9 7.36V22.68C216.9 24.4933 217.66 25.4 219.18 25.4C220.7 25.4 221.46 24.4933 221.46 22.68V17.2H219.26V13.2H225.62V22.36C225.62 24.6267 225.06 26.3733 223.94 27.6C222.82 28.8 221.193 29.4 219.06 29.4ZM231.845 0.999998H237.805L242.365 29H237.965L237.165 23.44V23.52H232.165L231.365 29H227.285L231.845 0.999998ZM236.645 19.72L234.685 5.88H234.605L232.685 19.72H236.645ZM244.499 0.999998H250.019L254.299 17.76H254.379V0.999998H258.299V29H253.779L248.499 8.56H248.419V29H244.499V0.999998ZM267.81 29.4C265.676 29.4 264.05 28.8 262.93 27.6C261.81 26.3733 261.25 24.6267 261.25 22.36V7.64C261.25 5.37333 261.81 3.64 262.93 2.44C264.05 1.21333 265.676 0.599998 267.81 0.599998C269.943 0.599998 271.57 1.21333 272.69 2.44C273.81 3.64 274.37 5.37333 274.37 7.64V10.04H270.21V7.36C270.21 5.52 269.45 4.6 267.93 4.6C266.41 4.6 265.65 5.52 265.65 7.36V22.68C265.65 24.4933 266.41 25.4 267.93 25.4C269.45 25.4 270.21 24.4933 270.21 22.68V17.2H268.01V13.2H274.37V22.36C274.37 24.6267 273.81 26.3733 272.69 27.6C271.57 28.8 269.943 29.4 267.81 29.4Z" fill="#A62121"/>
</svg>
