<svg width="1193" height="81" viewBox="0 0 1193 81" fill="none" xmlns="http://www.w3.org/2000/svg">
<path d="M13.45 20.26H0.800001V11.68C4.24667 11.68 6.99667 11.3867 9.05 10.8C11.1767 10.2133 12.8633 9.26 14.11 7.94C15.3567 6.54666 16.4567 4.56666 17.41 1.99999H25.55V79H13.45V20.26ZM57.493 20.26H44.843V11.68C48.2896 11.68 51.0396 11.3867 53.093 10.8C55.2196 10.2133 56.9063 9.26 58.153 7.94C59.3996 6.54666 60.4996 4.56666 61.453 1.99999H69.593V79H57.493V20.26ZM94.0559 13H81.4059V1.99999H118.806V13H106.156V79H94.0559V13ZM124.664 1.99999H136.764V33.35H149.744V1.99999H161.844V79H149.744V44.35H136.764V79H124.664V1.99999ZM188.473 1.99999H200.573V68H220.483V79H188.473V1.99999ZM226.285 1.99999H238.385V79H226.285V1.99999ZM247.448 1.99999H259.548V34.45L274.948 1.99999H287.048L272.638 30.27L287.268 79H274.618L264.388 44.68L259.548 54.47V79H247.448V1.99999ZM292.994 1.99999H325.994V13H305.094V33.35H321.704V44.35H305.094V68H325.994V79H292.994V1.99999ZM332.955 1.99999H345.055V68H364.965V79H332.955V1.99999ZM370.768 1.99999H382.868V79H370.768V1.99999ZM409.42 80.1C403.48 80.1 398.933 78.4133 395.78 75.04C392.627 71.6667 391.05 66.9 391.05 60.74V20.26C391.05 14.1 392.627 9.33333 395.78 5.96C398.933 2.58666 403.48 0.899996 409.42 0.899996C415.36 0.899996 419.907 2.58666 423.06 5.96C426.213 9.33333 427.79 14.1 427.79 20.26V60.74C427.79 66.9 426.213 71.6667 423.06 75.04C419.907 78.4133 415.36 80.1 409.42 80.1ZM409.42 69.1C413.6 69.1 415.69 66.57 415.69 61.51V19.49C415.69 14.43 413.6 11.9 409.42 11.9C405.24 11.9 403.15 14.43 403.15 19.49V61.51C403.15 66.57 405.24 69.1 409.42 69.1ZM435.973 1.99999H451.153L462.923 48.09H463.143V1.99999H473.923V79H461.493L446.973 22.79H446.753V79H435.973V1.99999ZM789.503 1.99999H805.893L818.433 79H806.333L804.133 63.71V63.93H790.383L788.183 79H776.963L789.503 1.99999ZM802.703 53.48L797.313 15.42H797.093L791.813 53.48H802.703ZM824.303 1.99999H842.123C848.136 1.99999 852.646 3.61333 855.653 6.84C858.66 10.0667 860.163 14.7967 860.163 21.03V28.62C860.163 34.8533 858.66 39.5833 855.653 42.81C852.646 46.0367 848.136 47.65 842.123 47.65H836.403V79H824.303V1.99999ZM842.123 36.65C844.103 36.65 845.57 36.1 846.523 35C847.55 33.9 848.063 32.03 848.063 29.39V20.26C848.063 17.62 847.55 15.75 846.523 14.65C845.57 13.55 844.103 13 842.123 13H836.403V36.65H842.123ZM866.735 1.99999H884.555C890.568 1.99999 895.078 3.61333 898.085 6.84C901.091 10.0667 902.595 14.7967 902.595 21.03V28.62C902.595 34.8533 901.091 39.5833 898.085 42.81C895.078 46.0367 890.568 47.65 884.555 47.65H878.835V79H866.735V1.99999ZM884.555 36.65C886.535 36.65 888.001 36.1 888.955 35C889.981 33.9 890.495 32.03 890.495 29.39V20.26C890.495 17.62 889.981 15.75 888.955 14.65C888.001 13.55 886.535 13 884.555 13H878.835V36.65H884.555ZM909.166 1.99999H921.266V68H941.176V79H909.166V1.99999ZM946.979 1.99999H959.079V79H946.979V1.99999ZM985.191 80.1C979.398 80.1 974.961 78.45 971.881 75.15C968.874 71.85 967.371 67.1933 967.371 61.18V19.82C967.371 13.8067 968.874 9.15 971.881 5.85C974.961 2.55 979.398 0.899996 985.191 0.899996C990.984 0.899996 995.384 2.55 998.391 5.85C1001.47 9.15 1003.01 13.8067 1003.01 19.82V27.96H991.571V19.05C991.571 14.2833 989.554 11.9 985.521 11.9C981.488 11.9 979.471 14.2833 979.471 19.05V62.06C979.471 66.7533 981.488 69.1 985.521 69.1C989.554 69.1 991.571 66.7533 991.571 62.06V50.29H1003.01V61.18C1003.01 67.1933 1001.47 71.85 998.391 75.15C995.384 78.45 990.984 80.1 985.191 80.1ZM1019.6 1.99999H1035.99L1048.53 79H1036.43L1034.23 63.71V63.93H1020.48L1018.28 79H1007.06L1019.6 1.99999ZM1032.8 53.48L1027.41 15.42H1027.19L1021.91 53.48H1032.8ZM1058.81 13H1046.16V1.99999H1083.56V13H1070.91V79H1058.81V13ZM1089.42 1.99999H1101.52V79H1089.42V1.99999ZM1128.07 80.1C1122.13 80.1 1117.59 78.4133 1114.43 75.04C1111.28 71.6667 1109.7 66.9 1109.7 60.74V20.26C1109.7 14.1 1111.28 9.33333 1114.43 5.96C1117.59 2.58666 1122.13 0.899996 1128.07 0.899996C1134.01 0.899996 1138.56 2.58666 1141.71 5.96C1144.87 9.33333 1146.44 14.1 1146.44 20.26V60.74C1146.44 66.9 1144.87 71.6667 1141.71 75.04C1138.56 78.4133 1134.01 80.1 1128.07 80.1ZM1128.07 69.1C1132.25 69.1 1134.34 66.57 1134.34 61.51V19.49C1134.34 14.43 1132.25 11.9 1128.07 11.9C1123.89 11.9 1121.8 14.43 1121.8 19.49V61.51C1121.8 66.57 1123.89 69.1 1128.07 69.1ZM1154.63 1.99999H1169.81L1181.58 48.09H1181.8V1.99999H1192.58V79H1180.15L1165.63 22.79H1165.41V79H1154.63V1.99999Z" fill="white"/>
<path d="M516.263 80.1C510.397 80.1 505.96 78.45 502.953 75.15C499.947 71.7767 498.443 66.9733 498.443 60.74V56.34H509.883V61.62C509.883 66.6067 511.973 69.1 516.153 69.1C518.207 69.1 519.747 68.5133 520.773 67.34C521.873 66.0933 522.423 64.1133 522.423 61.4C522.423 58.1733 521.69 55.35 520.223 52.93C518.757 50.4367 516.043 47.4667 512.083 44.02C507.097 39.62 503.613 35.66 501.633 32.14C499.653 28.5467 498.663 24.5133 498.663 20.04C498.663 13.9533 500.203 9.26 503.283 5.96C506.363 2.58666 510.837 0.899996 516.703 0.899996C522.497 0.899996 526.86 2.58666 529.793 5.96C532.8 9.26 534.303 14.0267 534.303 20.26V23.45H522.863V19.49C522.863 16.85 522.35 14.9433 521.323 13.77C520.297 12.5233 518.793 11.9 516.813 11.9C512.78 11.9 510.763 14.3567 510.763 19.27C510.763 22.0567 511.497 24.66 512.963 27.08C514.503 29.5 517.253 32.4333 521.213 35.88C526.273 40.28 529.757 44.2767 531.663 47.87C533.57 51.4633 534.523 55.68 534.523 60.52C534.523 66.8267 532.947 71.6667 529.793 75.04C526.713 78.4133 522.203 80.1 516.263 80.1ZM558.951 80.1C553.011 80.1 548.465 78.4133 545.311 75.04C542.158 71.6667 540.581 66.9 540.581 60.74V20.26C540.581 14.1 542.158 9.33333 545.311 5.96C548.465 2.58666 553.011 0.899996 558.951 0.899996C564.891 0.899996 569.438 2.58666 572.591 5.96C575.745 9.33333 577.321 14.1 577.321 20.26V60.74C577.321 66.9 575.745 71.6667 572.591 75.04C569.438 78.4133 564.891 80.1 558.951 80.1ZM558.951 69.1C563.131 69.1 565.221 66.57 565.221 61.51V19.49C565.221 14.43 563.131 11.9 558.951 11.9C554.771 11.9 552.681 14.43 552.681 19.49V61.51C552.681 66.57 554.771 69.1 558.951 69.1ZM602.664 80.1C596.797 80.1 592.324 78.45 589.244 75.15C586.164 71.7767 584.624 66.9733 584.624 60.74V20.26C584.624 14.0267 586.164 9.26 589.244 5.96C592.324 2.58666 596.797 0.899996 602.664 0.899996C608.531 0.899996 613.004 2.58666 616.084 5.96C619.164 9.26 620.704 14.0267 620.704 20.26V26.86H609.264V19.49C609.264 14.43 607.174 11.9 602.994 11.9C598.814 11.9 596.724 14.43 596.724 19.49V61.62C596.724 66.6067 598.814 69.1 602.994 69.1C607.174 69.1 609.264 66.6067 609.264 61.62V46.55H603.214V35.55H620.704V60.74C620.704 66.9733 619.164 71.7767 616.084 75.15C613.004 78.45 608.531 80.1 602.664 80.1ZM637.823 1.99999H654.213L666.753 79H654.653L652.453 63.71V63.93H638.703L636.503 79H625.283L637.823 1.99999ZM651.023 53.48L645.633 15.42H645.413L640.133 53.48H651.023ZM672.623 1.99999H687.803L699.573 48.09H699.793V1.99999H710.573V79H698.143L683.623 22.79H683.403V79H672.623V1.99999ZM736.727 80.1C730.86 80.1 726.387 78.45 723.307 75.15C720.227 71.7767 718.687 66.9733 718.687 60.74V20.26C718.687 14.0267 720.227 9.26 723.307 5.96C726.387 2.58666 730.86 0.899996 736.727 0.899996C742.593 0.899996 747.067 2.58666 750.147 5.96C753.227 9.26 754.767 14.0267 754.767 20.26V26.86H743.327V19.49C743.327 14.43 741.237 11.9 737.057 11.9C732.877 11.9 730.787 14.43 730.787 19.49V61.62C730.787 66.6067 732.877 69.1 737.057 69.1C741.237 69.1 743.327 66.6067 743.327 61.62V46.55H737.277V35.55H754.767V60.74C754.767 66.9733 753.227 71.7767 750.147 75.15C747.067 78.45 742.593 80.1 736.727 80.1Z" fill="#A62121"/>
</svg>
