<svg width="518" height="81" viewBox="0 0 518 81" fill="none" xmlns="http://www.w3.org/2000/svg">
<path d="M0.51 1.99999H12.61V33.35H25.59V1.99999H37.69V79H25.59V44.35H12.61V79H0.51V1.99999ZM56.0514 1.99999H72.4414L84.9814 79H72.8814L70.6814 63.71V63.93H56.9314L54.7314 79H43.5114L56.0514 1.99999ZM69.2514 53.48L63.8614 15.42H63.6414L58.3614 53.48H69.2514ZM107.687 80.1C101.894 80.1 97.457 78.45 94.377 75.15C91.3703 71.85 89.867 67.1933 89.867 61.18V19.82C89.867 13.8067 91.3703 9.15 94.377 5.85C97.457 2.55 101.894 0.899996 107.687 0.899996C113.48 0.899996 117.88 2.55 120.887 5.85C123.967 9.15 125.507 13.8067 125.507 19.82V27.96H114.067V19.05C114.067 14.2833 112.05 11.9 108.017 11.9C103.984 11.9 101.967 14.2833 101.967 19.05V62.06C101.967 66.7533 103.984 69.1 108.017 69.1C112.05 69.1 114.067 66.7533 114.067 62.06V50.29H125.507V61.18C125.507 67.1933 123.967 71.85 120.887 75.15C117.88 78.45 113.48 80.1 107.687 80.1ZM132.746 1.99999H144.846V34.45L160.246 1.99999H172.346L157.936 30.27L172.566 79H159.916L149.686 44.68L144.846 54.47V79H132.746V1.99999ZM207.02 46.22L192.39 1.99999H205.26L213.51 30.27H213.73L221.98 1.99999H233.75L219.12 46.22V79H207.02V46.22ZM254.758 80.1C248.818 80.1 244.271 78.4133 241.118 75.04C237.964 71.6667 236.388 66.9 236.388 60.74V20.26C236.388 14.1 237.964 9.33333 241.118 5.96C244.271 2.58666 248.818 0.899996 254.758 0.899996C260.698 0.899996 265.244 2.58666 268.398 5.96C271.551 9.33333 273.128 14.1 273.128 20.26V60.74C273.128 66.9 271.551 71.6667 268.398 75.04C265.244 78.4133 260.698 80.1 254.758 80.1ZM254.758 69.1C258.938 69.1 261.028 66.57 261.028 61.51V19.49C261.028 14.43 258.938 11.9 254.758 11.9C250.578 11.9 248.488 14.43 248.488 19.49V61.51C248.488 66.57 250.578 69.1 254.758 69.1ZM298.911 80.1C293.044 80.1 288.571 78.45 285.491 75.15C282.411 71.7767 280.871 66.9733 280.871 60.74V1.99999H292.971V61.62C292.971 64.26 293.484 66.1667 294.511 67.34C295.611 68.5133 297.151 69.1 299.131 69.1C301.111 69.1 302.614 68.5133 303.641 67.34C304.741 66.1667 305.291 64.26 305.291 61.62V1.99999H316.951V60.74C316.951 66.9733 315.411 71.7767 312.331 75.15C309.251 78.45 304.777 80.1 298.911 80.1ZM325.569 1.99999H343.499C349.732 1.99999 354.279 3.46666 357.139 6.4C359.999 9.26 361.429 13.6967 361.429 19.71V24.44C361.429 32.4333 358.789 37.4933 353.509 39.62V39.84C356.442 40.72 358.495 42.5167 359.669 45.23C360.915 47.9433 361.539 51.5733 361.539 56.12V69.65C361.539 71.85 361.612 73.6467 361.759 75.04C361.905 76.36 362.272 77.68 362.859 79H350.539C350.099 77.7533 349.805 76.58 349.659 75.48C349.512 74.38 349.439 72.4 349.439 69.54V55.46C349.439 51.94 348.852 49.4833 347.679 48.09C346.579 46.6967 344.635 46 341.849 46H337.669V79H325.569V1.99999ZM342.069 35C344.489 35 346.285 34.3767 347.459 33.13C348.705 31.8833 349.329 29.7933 349.329 26.86V20.92C349.329 18.1333 348.815 16.1167 347.789 14.87C346.835 13.6233 345.295 13 343.169 13H337.669V35H342.069ZM387.551 1.99999H399.651V68H419.561V79H387.551V1.99999ZM425.364 1.99999H437.464V79H425.364V1.99999ZM446.526 1.99999H478.536V13H458.626V34.45H474.246V45.45H458.626V79H446.526V1.99999ZM484.338 1.99999H517.338V13H496.438V33.35H513.048V44.35H496.438V68H517.338V79H484.338V1.99999Z" fill="white"/>
</svg>
