<svg width="615" height="65" viewBox="0 0 615 65" fill="none" xmlns="http://www.w3.org/2000/svg">
<path d="M10.4788 16.1349H0.170796V9.14341C2.97936 9.14341 5.22023 8.90439 6.89342 8.42634C8.62636 7.94828 10.0008 7.17145 11.0166 6.09583C12.0325 4.96045 12.9288 3.34702 13.7057 1.25554H20.3387V64H10.4788V16.1349ZM46.3678 16.1349H36.0598V9.14341C38.8683 9.14341 41.1092 8.90439 42.7824 8.42634C44.5153 7.94828 45.8898 7.17145 46.9056 6.09583C47.9215 4.96045 48.8178 3.34702 49.5947 1.25554H56.2276V64H46.3678V16.1349ZM76.1616 10.219H65.8536V1.25554H96.3295V10.219H86.0215V64H76.1616V10.219ZM101.103 1.25554H110.963V26.8015H121.54V1.25554H131.4V64H121.54V35.765H110.963V64H101.103V1.25554ZM153.099 1.25554H162.958V55.0365H179.182V64H153.099V1.25554ZM183.911 1.25554H193.77V64H183.911V1.25554ZM201.155 1.25554H211.015V27.6978L223.563 1.25554H233.423L221.681 24.2917L233.603 64H223.295L214.959 36.0339L211.015 44.0114V64H201.155V1.25554ZM238.269 1.25554H265.16V10.219H248.129V26.8015H261.664V35.765H248.129V55.0365H265.16V64H238.269V1.25554ZM270.832 1.25554H280.692V55.0365H296.916V64H270.832V1.25554ZM301.644 1.25554H311.504V64H301.644V1.25554ZM333.14 64.8963C328.3 64.8963 324.595 63.5219 322.025 60.7731C319.456 58.0243 318.171 54.1402 318.171 49.1206V16.1349C318.171 11.1154 319.456 7.2312 322.025 4.4824C324.595 1.73359 328.3 0.359188 333.14 0.359188C337.98 0.359188 341.685 1.73359 344.255 4.4824C346.824 7.2312 348.109 11.1154 348.109 16.1349V49.1206C348.109 54.1402 346.824 58.0243 344.255 60.7731C341.685 63.5219 337.98 64.8963 333.14 64.8963ZM333.14 55.9329C336.546 55.9329 338.249 53.8713 338.249 49.748V15.5075C338.249 11.3843 336.546 9.32268 333.14 9.32268C329.734 9.32268 328.031 11.3843 328.031 15.5075V49.748C328.031 53.8713 329.734 55.9329 333.14 55.9329ZM354.777 1.25554H367.147L376.738 38.8126H376.917V1.25554H385.701V64H375.572L363.741 18.1965H363.561V64H354.777V1.25554Z" fill="white"/>
<path d="M420.203 64.8963C415.422 64.8963 411.807 63.5518 409.357 60.8628C406.907 58.114 405.682 54.1999 405.682 49.1206V45.5352H415.004V49.8377C415.004 53.9011 416.707 55.9329 420.113 55.9329C421.786 55.9329 423.041 55.4548 423.878 54.4987C424.774 53.4828 425.222 51.8694 425.222 49.6584C425.222 47.0291 424.625 44.7285 423.43 42.7565C422.235 40.7248 420.024 38.3046 416.797 35.4961C412.733 31.9107 409.895 28.6838 408.281 25.8155C406.668 22.8874 405.861 19.6008 405.861 15.9557C405.861 10.9959 407.116 7.17145 409.626 4.4824C412.136 1.73359 415.781 0.359188 420.561 0.359188C425.282 0.359188 428.838 1.73359 431.228 4.4824C433.678 7.17145 434.903 11.0556 434.903 16.1349V18.7344H425.581V15.5075C425.581 13.3563 425.163 11.8026 424.326 10.8465C423.49 9.83061 422.265 9.32268 420.651 9.32268C417.364 9.32268 415.721 11.3245 415.721 15.3282C415.721 17.599 416.319 19.7203 417.514 21.6923C418.769 23.6643 421.01 26.0545 424.236 28.8631C428.36 32.4485 431.198 35.7052 432.752 38.6333C434.305 41.5614 435.082 44.9974 435.082 48.9413C435.082 54.0804 433.798 58.0243 431.228 60.7731C428.718 63.5219 425.043 64.8963 420.203 64.8963ZM454.988 64.8963C450.147 64.8963 446.442 63.5219 443.873 60.7731C441.303 58.0243 440.019 54.1402 440.019 49.1206V16.1349C440.019 11.1154 441.303 7.2312 443.873 4.4824C446.442 1.73359 450.147 0.359188 454.988 0.359188C459.828 0.359188 463.533 1.73359 466.102 4.4824C468.672 7.2312 469.957 11.1154 469.957 16.1349V49.1206C469.957 54.1402 468.672 58.0243 466.102 60.7731C463.533 63.5219 459.828 64.8963 454.988 64.8963ZM454.988 55.9329C458.394 55.9329 460.097 53.8713 460.097 49.748V15.5075C460.097 11.3843 458.394 9.32268 454.988 9.32268C451.581 9.32268 449.878 11.3843 449.878 15.5075V49.748C449.878 53.8713 451.581 55.9329 454.988 55.9329ZM490.608 64.8963C485.827 64.8963 482.182 63.5518 479.672 60.8628C477.162 58.114 475.908 54.1999 475.908 49.1206V16.1349C475.908 11.0556 477.162 7.17145 479.672 4.4824C482.182 1.73359 485.827 0.359188 490.608 0.359188C495.388 0.359188 499.033 1.73359 501.543 4.4824C504.053 7.17145 505.308 11.0556 505.308 16.1349V21.513H495.986V15.5075C495.986 11.3843 494.283 9.32268 490.877 9.32268C487.47 9.32268 485.767 11.3843 485.767 15.5075V49.8377C485.767 53.9011 487.47 55.9329 490.877 55.9329C494.283 55.9329 495.986 53.9011 495.986 49.8377V37.5577H491.056V28.5942H505.308V49.1206C505.308 54.1999 504.053 58.114 501.543 60.8628C499.033 63.5518 495.388 64.8963 490.608 64.8963ZM519.257 1.25554H532.613L542.831 64H532.971L531.179 51.5407V51.72H519.974L518.182 64H509.039L519.257 1.25554ZM530.013 43.2047L525.621 12.191H525.442L521.14 43.2047H530.013ZM547.615 1.25554H559.984L569.575 38.8126H569.755V1.25554H578.539V64H568.41L556.578 18.1965H556.399V64H547.615V1.25554ZM599.85 64.8963C595.07 64.8963 591.425 63.5518 588.915 60.8628C586.405 58.114 585.15 54.1999 585.15 49.1206V16.1349C585.15 11.0556 586.405 7.17145 588.915 4.4824C591.425 1.73359 595.07 0.359188 599.85 0.359188C604.631 0.359188 608.276 1.73359 610.786 4.4824C613.296 7.17145 614.55 11.0556 614.55 16.1349V21.513H605.228V15.5075C605.228 11.3843 603.525 9.32268 600.119 9.32268C596.713 9.32268 595.01 11.3843 595.01 15.5075V49.8377C595.01 53.9011 596.713 55.9329 600.119 55.9329C603.525 55.9329 605.228 53.9011 605.228 49.8377V37.5577H600.298V28.5942H614.55V49.1206C614.55 54.1999 613.296 58.114 610.786 60.8628C608.276 63.5518 604.631 64.8963 599.85 64.8963Z" fill="#A62121"/>
</svg>
